<svg id="Group_20_copy_6" data-name="Group 20 copy 6" xmlns="http://www.w3.org/2000/svg" xmlns:xlink="http://www.w3.org/1999/xlink" width="212.654" height="212.654" viewBox="0 0 84 84">
  <metadata><?xpacket begin="﻿" id="W5M0MpCehiHzreSzNTczkc9d"?>
<x:xmpmeta xmlns:x="adobe:ns:meta/" x:xmptk="Adobe XMP Core 5.6-c138 79.159824, 2016/09/14-01:09:01        ">
   <rdf:RDF xmlns:rdf="http://www.w3.org/1999/02/22-rdf-syntax-ns#">
      <rdf:Description rdf:about=""/>
   </rdf:RDF>
</x:xmpmeta>
                                                                                                    
                                                                                                    
                                                                                                    
                                                                                                    
                                                                                                    
                                                                                                    
                                                                                                    
                                                                                                    
                                                                                                    
                                                                                                    
                                                                                                    
                                                                                                    
                                                                                                    
                                                                                                    
                                                                                                    
                                                                                                    
                                                                                                    
                                                                                                    
                                                                                                    
                                                                                                    
                           
<?xpacket end="w"?></metadata>
<defs>
    <style>
      .cls-1 {
        fill: #00aeef;
        filter: url(#filter);
      }

      .cls-2 {
        fill: #fff;
        fill-rule: evenodd;
      }
    </style>
    <filter id="filter" x="0" y="0" width="84" height="84" filterUnits="userSpaceOnUse">
      <feOffset result="offset" dy="2" in="SourceAlpha"/>
      <feGaussianBlur result="blur" stdDeviation="1.732"/>
      <feFlood result="flood" flood-opacity="0.5"/>
      <feComposite result="composite" operator="in" in2="blur"/>
      <feBlend result="blend" in="SourceGraphic"/>
    </filter>
  </defs>
  <circle class="cls-1" cx="41.5" cy="39.5" r="39.5"/>
  <path class="cls-2" d="M207.166,551.015q0.625,0.442,3.774,2.63t4.826,3.37c0.122,0.086.384,0.274,0.782,0.563s0.731,0.524,1,.7,0.583,0.378.958,0.6a5.611,5.611,0,0,0,1.058.5,2.92,2.92,0,0,0,.922.166h0.036a2.92,2.92,0,0,0,.922-0.166,5.674,5.674,0,0,0,1.058-.5c0.374-.223.693-0.422,0.958-0.6s0.595-.412.994-0.7,0.661-.477.783-0.563q1.694-1.182,8.619-6a8.751,8.751,0,0,0,2.246-2.271,4.889,4.889,0,0,0,.9-2.787A2.978,2.978,0,0,0,234.053,543H206.945a2.628,2.628,0,0,0-2.183.96,3.736,3.736,0,0,0-.764,2.4,4.317,4.317,0,0,0,1.014,2.521,9.15,9.15,0,0,0,2.154,2.133h0Zm0,0,27.991,1.975q-6.039,4.1-9.17,6.37-1.05.777-1.7,1.21a10.416,10.416,0,0,1-1.739.886,5.3,5.3,0,0,1-2.027.453h-0.036a5.294,5.294,0,0,1-2.027-.453,10.47,10.47,0,0,1-1.74-.886q-0.653-.434-1.7-1.21-2.487-1.827-9.153-6.37a9.779,9.779,0,0,1-1.86-1.607v14.662A2.958,2.958,0,0,0,206.945,569h27.108A2.958,2.958,0,0,0,237,566.045V551.383a10.2,10.2,0,0,1-1.843,1.607h0Zm0,0" transform="translate(-179 -516)"/>
</svg>
