<svg id="Login" xmlns="http://www.w3.org/2000/svg" xmlns:xlink="http://www.w3.org/1999/xlink" width="303.61" height="303.61" viewBox="0 0 84 84">
  <metadata><?xpacket begin="﻿" id="W5M0MpCehiHzreSzNTczkc9d"?>
<x:xmpmeta xmlns:x="adobe:ns:meta/" x:xmptk="Adobe XMP Core 5.6-c138 79.159824, 2016/09/14-01:09:01        ">
   <rdf:RDF xmlns:rdf="http://www.w3.org/1999/02/22-rdf-syntax-ns#">
      <rdf:Description rdf:about=""/>
   </rdf:RDF>
</x:xmpmeta>
                                                                                                    
                                                                                                    
                                                                                                    
                                                                                                    
                                                                                                    
                                                                                                    
                                                                                                    
                                                                                                    
                                                                                                    
                                                                                                    
                                                                                                    
                                                                                                    
                                                                                                    
                                                                                                    
                                                                                                    
                                                                                                    
                                                                                                    
                                                                                                    
                                                                                                    
                                                                                                    
                           
<?xpacket end="w"?></metadata>
<defs>
    <style>
      .cls-1 {
        fill: #00a651;
        filter: url(#filter);
      }

      .cls-2 {
        fill: #fff;
        fill-rule: evenodd;
      }
    </style>
    <filter id="filter" x="0" y="0" width="84" height="84" filterUnits="userSpaceOnUse">
      <feOffset result="offset" dy="2" in="SourceAlpha"/>
      <feGaussianBlur result="blur" stdDeviation="1.732"/>
      <feFlood result="flood" flood-opacity="0.5"/>
      <feComposite result="composite" operator="in" in2="blur"/>
      <feBlend result="blend" in="SourceGraphic"/>
    </filter>
  </defs>
  <circle id="Ellipse_1074_copy_4" data-name="Ellipse 1074 copy 4" class="cls-1" cx="41.5" cy="39.5" r="39.5"/>
  <path class="cls-2" d="M176.842,609.161a10.293,10.293,0,1,0-19.909,4.7,0.685,0.685,0,0,1-.18.856q-5.226,5.208-10.423,10.443a0.716,0.716,0,0,0-.292.552c0.018,1.085,0,2.17.012,3.255a1.992,1.992,0,0,0,1.444,1.98,1.592,1.592,0,0,0,.306.049h2.982a1.523,1.523,0,0,0,.581-0.37,0.994,0.994,0,0,1,.881-0.395,0.72,0.72,0,0,0,.533-0.161,1.723,1.723,0,0,0,.851-1.661,3.505,3.505,0,0,1,0-.615,0.334,0.334,0,0,1,.382-0.372c0.322,0,.643,0,0.964,0a1.017,1.017,0,0,0,.69-0.226,1.681,1.681,0,0,0,.772-1.654,2.082,2.082,0,0,1,0-.395c0.01-.481.057-0.535,0.527-0.541,0.613-.007,1.227,0,1.841,0a1.2,1.2,0,0,0,.672-0.158,3.42,3.42,0,0,0,1.685-2.64c0.089-.9.085-0.9,1-0.9a1.167,1.167,0,0,0,.95-0.224,0.761,0.761,0,0,1,.843-0.169,10.063,10.063,0,0,0,3.6.317,10.312,10.312,0,0,0,7.9-4.845,10.51,10.51,0,0,0,1.481-4.355A9.128,9.128,0,0,0,176.842,609.161Zm-15.129,7.151q-6.3,6.306-12.59,12.634c-0.245.248-.393,0.242-0.552-0.051-0.68-.594-0.68-0.594-0.074-1.2l12.123-12.165c0.4-.4.4-0.4,0.805,0,0.081,0.083.156,0.173,0.234,0.26C161.913,615.941,161.954,616.071,161.713,616.312Zm8.679-6.819a2.833,2.833,0,0,1-2.826-2.816A2.8,2.8,0,1,1,170.392,609.493ZM159.13,597.817a11.827,11.827,0,0,0-1.148-4.969,11.617,11.617,0,0,0-12.133-6.73,11.91,11.91,0,0,0-10.064,11.264c-0.065,2.023-.033,4.049-0.022,6.073,0,0.339-.093.416-0.417,0.409-0.965-.021-1.93.014-2.894-0.014-0.367-.01-0.455.089-0.453,0.455,0.015,3.448.009,6.9,0.009,10.344s0,6.924-.005,10.387c0,0.3.023,0.429,0.386,0.427,3.508-.017,7.017-0.012,10.525-0.006a0.691,0.691,0,0,0,.54-0.215q5.389-5.423,10.792-10.83a0.732,0.732,0,0,0,.225-0.582c-0.009-1.07,0-2.142,0-3.213a12.086,12.086,0,0,1,4.444-9.591,0.6,0.6,0,0,0,.23-0.525C159.131,599.606,159.139,598.712,159.13,597.817Zm-6.952,6.049c-1.578-.013-3.157-0.006-4.735-0.006s-3.158-.009-4.736.007a0.338,0.338,0,0,1-.42-0.418c0.015-2.009-.009-4.019.012-6.029a4.613,4.613,0,0,1,2.1-3.679,5.121,5.121,0,0,1,7.978,2.4,3.9,3.9,0,0,1,.225,1.336c0.006,2-.007,3.99.012,5.985C152.614,603.823,152.483,603.869,152.178,603.866Z" transform="translate(-109 -569)"/>
</svg>
