<svg id="Aqard_Export" data-name="Aqard Export" xmlns="http://www.w3.org/2000/svg" xmlns:xlink="http://www.w3.org/1999/xlink" width="104" height="104" viewBox="0 0 104 104">
  <metadata><?xpacket begin="﻿" id="W5M0MpCehiHzreSzNTczkc9d"?>
<x:xmpmeta xmlns:x="adobe:ns:meta/" x:xmptk="Adobe XMP Core 5.6-c138 79.159824, 2016/09/14-01:09:01        ">
   <rdf:RDF xmlns:rdf="http://www.w3.org/1999/02/22-rdf-syntax-ns#">
      <rdf:Description rdf:about=""/>
   </rdf:RDF>
</x:xmpmeta>
                                                                                                    
                                                                                                    
                                                                                                    
                                                                                                    
                                                                                                    
                                                                                                    
                                                                                                    
                                                                                                    
                                                                                                    
                                                                                                    
                                                                                                    
                                                                                                    
                                                                                                    
                                                                                                    
                                                                                                    
                                                                                                    
                                                                                                    
                                                                                                    
                                                                                                    
                                                                                                    
                           
<?xpacket end="w"?></metadata>
<defs>
    <style>
      .cls-1 {
        fill: #ff9415;
        filter: url(#filter);
      }

      .cls-2 {
        fill: #fff;
        fill-rule: evenodd;
      }
    </style>
    <filter id="filter" x="0" y="0" width="104" height="104" filterUnits="userSpaceOnUse">
      <feOffset result="offset" dy="3" in="SourceAlpha"/>
      <feGaussianBlur result="blur" stdDeviation="2"/>
      <feFlood result="flood" flood-opacity="0.5"/>
      <feComposite result="composite" operator="in" in2="blur"/>
      <feBlend result="blend" in="SourceGraphic"/>
    </filter>
  </defs>
  <circle id="Ellipse_1074_copy" data-name="Ellipse 1074 copy" class="cls-1" cx="51.5" cy="48.5" r="48.5"/>
  <path class="cls-2" d="M161.4,511.737h-0.123l-2.7-.1-2,1.783a3.434,3.434,0,0,1-2.282.864,3.4,3.4,0,0,1-1.287-.247l-2.5-1.006-2.5,1.006a3.4,3.4,0,0,1-1.287.247,3.434,3.434,0,0,1-2.282-.864l-2-1.783-2.7.1h-0.122a3.4,3.4,0,0,1-3.011-1.79l-1.26-2.352-0.1-.034v20.757a1.7,1.7,0,0,0,2.466,1.494l12.041-5.951a1.755,1.755,0,0,1,1.533,0l12.022,5.958a1.7,1.7,0,0,0,2.465-1.5V507.568l-0.1.033-1.26,2.353a3.4,3.4,0,0,1-3.01,1.783h0Zm0,0M173.738,490.7a1.653,1.653,0,0,0,0-1.783l-1.437-2.252a1.66,1.66,0,0,1-.224-1.24l0.572-2.6a1.665,1.665,0,0,0-.62-1.676L169.9,479.52a1.677,1.677,0,0,1-.64-1.093l-0.375-2.634a1.7,1.7,0,0,0-1.164-1.367l-2.568-.818a1.7,1.7,0,0,1-.981-0.811l-1.26-2.352a1.706,1.706,0,0,0-1.5-.891h-0.062l-2.7.1h-0.061a1.712,1.712,0,0,1-1.145-.436l-2-1.782a1.737,1.737,0,0,0-1.145-.436,1.635,1.635,0,0,0-.64.127l-2.5,1.006a1.772,1.772,0,0,1-.641.127,1.631,1.631,0,0,1-.64-0.127l-2.5-1.006a1.828,1.828,0,0,0-.641-0.127,1.706,1.706,0,0,0-1.144.436l-2,1.782a1.709,1.709,0,0,1-1.144.436H142.38l-2.7-.1h-0.061a1.707,1.707,0,0,0-1.506.891l-1.26,2.352a1.673,1.673,0,0,1-.981.811l-2.567.818a1.683,1.683,0,0,0-1.165,1.367l-0.375,2.634a1.677,1.677,0,0,1-.64,1.093l-2.159,1.628a1.663,1.663,0,0,0-.62,1.676l0.572,2.6a1.624,1.624,0,0,1-.225,1.24l-1.437,2.252a1.657,1.657,0,0,0,0,1.783l1.437,2.252a1.653,1.653,0,0,1,.225,1.239l-0.572,2.6a1.663,1.663,0,0,0,.62,1.676L131.1,500.1a1.675,1.675,0,0,1,.64,1.092l0.375,2.634a1.693,1.693,0,0,0,1.164,1.368l1.948,0.616,0.627,0.2a1.7,1.7,0,0,1,.981.811l1.26,2.353a1.707,1.707,0,0,0,1.5.891h0.061l2.7-.1h0.061a1.713,1.713,0,0,1,1.144.435l2,1.783a1.739,1.739,0,0,0,1.144.436,1.629,1.629,0,0,0,.64-0.128l2.5-1a1.763,1.763,0,0,1,.64-0.127,1.628,1.628,0,0,1,.64.127l2.5,1a1.8,1.8,0,0,0,.64.128,1.708,1.708,0,0,0,1.145-.436l2-1.783a1.713,1.713,0,0,1,1.144-.435h0.062l2.7,0.1h0.061a1.706,1.706,0,0,0,1.5-.891l1.26-2.353a1.676,1.676,0,0,1,.981-0.811l0.627-.2,1.948-.616a1.686,1.686,0,0,0,1.164-1.368l0.375-2.634a1.675,1.675,0,0,1,.64-1.092l2.132-1.628a1.663,1.663,0,0,0,.62-1.676l-0.572-2.6a1.617,1.617,0,0,1,.225-1.239Zm-6.763,5.958a17.986,17.986,0,0,1-1.2,2.305,17.39,17.39,0,0,1-2.629,3.284,17.819,17.819,0,0,1-5.681,3.767,18.232,18.232,0,0,1-13.921,0,17.851,17.851,0,0,1-8.31-7.051,16.951,16.951,0,0,1-1.2-2.305,17.421,17.421,0,0,1,0-13.7,17.452,17.452,0,0,1,3.828-5.59,17.817,17.817,0,0,1,5.681-3.766,18.232,18.232,0,0,1,13.921,0,17.751,17.751,0,0,1,5.681,3.766,17.529,17.529,0,0,1,3.828,5.59,17.421,17.421,0,0,1,0,13.7h0Zm0,0M150.5,474.225a15.711,15.711,0,0,0-15.836,15.582,15.3,15.3,0,0,0,.565,4.129,15.906,15.906,0,0,0,30.541,0,15.3,15.3,0,0,0,.566-4.129A15.712,15.712,0,0,0,150.5,474.225h0Zm7.049,22.8a1.694,1.694,0,0,1-2.506,1.8L150.5,496.3l-4.55,2.534a1.7,1.7,0,0,1-2.506-1.8l1.089-5.053-3.555-3.157-0.4-.355a1.671,1.671,0,0,1,.933-2.908l5.176-.624,2.255-4.752a1.716,1.716,0,0,1,3.085,0l2.255,4.752,5.176,0.624a1.669,1.669,0,0,1,.934,2.908l-0.4.355-3.555,3.157Zm0,0" transform="translate(-99 -450)"/>
</svg>
