<svg id="Group_20_copy_5" data-name="Group 20 copy 5" xmlns="http://www.w3.org/2000/svg" xmlns:xlink="http://www.w3.org/1999/xlink" width="212.654" height="212.654" viewBox="0 0 84 84">
  <metadata><?xpacket begin="﻿" id="W5M0MpCehiHzreSzNTczkc9d"?>
<x:xmpmeta xmlns:x="adobe:ns:meta/" x:xmptk="Adobe XMP Core 5.6-c138 79.159824, 2016/09/14-01:09:01        ">
   <rdf:RDF xmlns:rdf="http://www.w3.org/1999/02/22-rdf-syntax-ns#">
      <rdf:Description rdf:about=""/>
   </rdf:RDF>
</x:xmpmeta>
                                                                                                    
                                                                                                    
                                                                                                    
                                                                                                    
                                                                                                    
                                                                                                    
                                                                                                    
                                                                                                    
                                                                                                    
                                                                                                    
                                                                                                    
                                                                                                    
                                                                                                    
                                                                                                    
                                                                                                    
                                                                                                    
                                                                                                    
                                                                                                    
                                                                                                    
                                                                                                    
                           
<?xpacket end="w"?></metadata>
<defs>
    <style>
      .cls-1 {
        fill: #ff0254;
        filter: url(#filter);
      }

      .cls-2 {
        fill: #fff;
        fill-rule: evenodd;
      }
    </style>
    <filter id="filter" x="0" y="0" width="84" height="84" filterUnits="userSpaceOnUse">
      <feOffset result="offset" dy="2" in="SourceAlpha"/>
      <feGaussianBlur result="blur" stdDeviation="1.732"/>
      <feFlood result="flood" flood-opacity="0.5"/>
      <feComposite result="composite" operator="in" in2="blur"/>
      <feBlend result="blend" in="SourceGraphic"/>
    </filter>
  </defs>
  <circle id="Ellipse_1074_copy_3" data-name="Ellipse 1074 copy 3" class="cls-1" cx="41.5" cy="39.5" r="39.5"/>
  <path class="cls-2" d="M150.505,373.062L134.453,386a0.317,0.317,0,0,1-.013.082,0.42,0.42,0,0,0-.013.081v13.095a1.648,1.648,0,0,0,.53,1.226,1.729,1.729,0,0,0,1.255.52h10.721V390.522h7.147V401H164.8a1.735,1.735,0,0,0,1.255-.518,1.655,1.655,0,0,0,.532-1.228V386.158a0.376,0.376,0,0,0-.028-0.163Zm0,0,22.192,9.986-6.113-4.965V366.952a0.839,0.839,0,0,0-.251-0.628,0.881,0.881,0,0,0-.642-0.245h-5.359a0.885,0.885,0,0,0-.643.245,0.842,0.842,0,0,0-.251.628v5.32l-6.81-5.565a3.525,3.525,0,0,0-4.243,0l-20.073,16.341a0.784,0.784,0,0,0-.306.586,0.872,0.872,0,0,0,.195.642l1.73,2.018a0.957,0.957,0,0,0,.586.3,1.06,1.06,0,0,0,.671-0.191l19.317-15.742L169.823,386.4a0.874,0.874,0,0,0,.586.191h0.085a0.962,0.962,0,0,0,.586-0.3l1.731-2.019a0.867,0.867,0,0,0,.194-0.641,0.786,0.786,0,0,0-.308-0.586h0Zm0,0" transform="translate(-109 -344)"/>
</svg>
