<svg id="Isolation_Mode" data-name="Isolation Mode" xmlns="http://www.w3.org/2000/svg" viewBox="0 0 58.24 58.25"><defs><style>.cls-1{fill:#e02a2f;}.cls-2{fill:#fff;fill-rule:evenodd;}</style></defs><title>icon-pinterest</title><circle class="cls-1" cx="29.12" cy="29.13" r="25.04"/><path class="cls-1" d="M54,187.26a.52.52,0,0,1,0-1,28.4,28.4,0,0,0,4.47-.36.52.52,0,1,1,.17,1,29.46,29.46,0,0,1-4.63.37Zm9-1.45a.52.52,0,0,1-.16-1,28,28,0,0,0,6.07-2.86.52.52,0,1,1,.56.88,29,29,0,0,1-6.29,3Zm-24.79-3.29a.52.52,0,0,1-.29-.09,29.12,29.12,0,0,1-10.75-12.92.52.52,0,1,1,1-.41,28.07,28.07,0,0,0,10.37,12.46.52.52,0,0,1-.29,1Zm39.62-8.06a.52.52,0,0,1-.43-.81A28,28,0,0,0,82,158.14a.52.52,0,0,1,1,0,29,29,0,0,1-4.85,16.09A.52.52,0,0,1,77.77,174.46ZM25.33,158h0a.52.52,0,0,1-.51-.53,29.18,29.18,0,0,1,1-6.89.52.52,0,1,1,1,.27,28.11,28.11,0,0,0-1,6.64A.52.52,0,0,1,25.33,158Zm54.91-10.53a.52.52,0,0,1-.48-.32,28,28,0,0,0-2.08-4,.52.52,0,1,1,.88-.56,29.05,29.05,0,0,1,2.16,4.11.52.52,0,0,1-.48.73Zm-52.4-.53a.52.52,0,0,1-.47-.74,29.22,29.22,0,0,1,2.25-4.07.52.52,0,1,1,.87.58,28.12,28.12,0,0,0-2.16,3.92A.52.52,0,0,1,27.84,146.9Zm47.54-7.15a.52.52,0,0,1-.39-.18,28.29,28.29,0,0,0-5-4.47.52.52,0,1,1,.6-.85,29.28,29.28,0,0,1,5.19,4.63.52.52,0,0,1-.39.87Zm-32.65-7.42a.52.52,0,0,1-.2-1A28.94,28.94,0,0,1,53.93,129a29.38,29.38,0,0,1,5.31.48.52.52,0,0,1-.19,1,28.37,28.37,0,0,0-5.12-.46,27.91,27.91,0,0,0-11,2.23A.52.52,0,0,1,42.73,132.33Z" transform="translate(-24.81 -129.01)"/><path class="cls-2" d="M52.07,162.61l-.07.23c-1.08,4.22-1.2,5.16-2.31,7.12a22,22,0,0,1-1.78,2.66c-.07.1-.14.22-.29.19s-.18-.18-.19-.31a22.73,22.73,0,0,1-.23-3.87c.06-1.69.26-2.27,2.44-11.42a.63.63,0,0,0-.05-.38,6.44,6.44,0,0,1-.17-4.28c1-3.12,4.52-3.36,5.14-.78.38,1.59-.63,3.68-1.4,6.76-.64,2.54,2.35,4.35,4.91,2.49,2.36-1.71,3.27-5.81,3.1-8.72-.34-5.79-6.7-7-10.73-5.18-4.62,2.14-5.67,7.87-3.59,10.48.26.33.47.54.38.87-.13.52-.25,1.05-.4,1.57a.56.56,0,0,1-.82.37A4.73,4.73,0,0,1,44.08,159c-1.77-2.19-2.28-6.53.06-10.21A12.27,12.27,0,0,1,56,143.55c5.27.6,8.59,4.2,9.22,8.28a13.78,13.78,0,0,1-2.53,9.68c-3,3.72-7.87,4-10.12,1.69C52.38,163,52.24,162.82,52.07,162.61Z" transform="translate(-24.81 -129.01)"/></svg>