<svg id="Isolation_Mode" data-name="Isolation Mode" xmlns="http://www.w3.org/2000/svg" viewBox="0 0 58.25 58.25"><defs><style>.cls-1{fill:#1e4fad;}.cls-2{fill:#fff;fill-rule:evenodd;}</style></defs><title>login-facebook</title><path class="cls-1" d="M79,79.2A25,25,0,0,1,59.8,103.53a24.28,24.28,0,0,1-5.87.71c-.56,0-1.12,0-1.67-.06A25,25,0,1,1,79,79.2Z" transform="translate(-24.81 -50.07)"/><path class="cls-1" d="M59.23,50.55a29.88,29.88,0,0,0-5.3-.48,29,29,0,0,0-11.4,2.32.53.53,0,0,0-.27.69.51.51,0,0,0,.48.31.45.45,0,0,0,.2,0A28.15,28.15,0,0,1,59,51.58a.52.52,0,1,0,.19-1Zm16.55,9.39a29.17,29.17,0,0,0-5.19-4.63.52.52,0,0,0-.73.13.51.51,0,0,0,.14.72,28.71,28.71,0,0,1,5,4.48.54.54,0,0,0,.4.18.5.5,0,0,0,.34-.14A.5.5,0,0,0,75.77,59.94ZM30.34,63a.51.51,0,0,0-.72.15,28.12,28.12,0,0,0-2.24,4.07.51.51,0,0,0,.25.69.55.55,0,0,0,.7-.26,27.07,27.07,0,0,1,2.16-3.92A.52.52,0,0,0,30.34,63Zm50.38,4.76a28.07,28.07,0,0,0-2.16-4.11.53.53,0,0,0-.72-.17.52.52,0,0,0-.16.72,27.58,27.58,0,0,1,2.08,4,.54.54,0,0,0,.48.32.67.67,0,0,0,.21,0A.53.53,0,0,0,80.72,67.76ZM26.45,71.23a.53.53,0,0,0-.65.37,30.05,30.05,0,0,0-1,6.89.53.53,0,0,0,.51.54h0a.53.53,0,0,0,.52-.51,27.93,27.93,0,0,1,1-6.65A.53.53,0,0,0,26.45,71.23Zm56.09,7.45a.52.52,0,0,0-.52.52,28,28,0,0,1-4.67,15.51.52.52,0,0,0,.15.72.47.47,0,0,0,.28.08.49.49,0,0,0,.44-.23A29,29,0,0,0,83.05,79.2.52.52,0,0,0,82.53,78.68Zm-44.1,23.94A28.08,28.08,0,0,1,28.06,90.16a.52.52,0,0,0-.68-.28.53.53,0,0,0-.28.69A29.2,29.2,0,0,0,37.86,103.5a.56.56,0,0,0,.29.08.5.5,0,0,0,.43-.24A.51.51,0,0,0,38.43,102.62Zm31.12.54a.51.51,0,0,0-.72-.17,28,28,0,0,1-6.06,2.86.52.52,0,0,0-.33.66.54.54,0,0,0,.5.37.42.42,0,0,0,.16,0,29.21,29.21,0,0,0,6.3-3A.52.52,0,0,0,69.55,103.16Zm-11.13,3.76a27.62,27.62,0,0,1-4.47.35.52.52,0,0,0-.52.52.52.52,0,0,0,.52.52,29.82,29.82,0,0,0,4.63-.37.52.52,0,0,0-.17-1Z" transform="translate(-24.81 -50.07)"/><path class="cls-2" d="M59.81,74.58c0,1.55-.06,5.15-.06,5.15H66.9L66,87H59.8v16.53a24.28,24.28,0,0,1-5.87.71c-.56,0-1.12,0-1.67-.06V87H46.09V79.73H52.3v-.54c0-1.46,0-2.91,0-4.37A20.75,20.75,0,0,1,52.53,72a8.13,8.13,0,0,1,3.26-5.41,9.41,9.41,0,0,1,5.42-1.67c1.28,0,2.56,0,3.84.08.7,0,1.4.14,2.06.2v6.49h-.51c-1.25,0-2.49,0-3.75,0C61.14,71.79,59.87,72.44,59.81,74.58Z" transform="translate(-24.81 -50.07)"/></svg>