<svg id="Login" xmlns="http://www.w3.org/2000/svg" xmlns:xlink="http://www.w3.org/1999/xlink" width="303.61" height="303.61" viewBox="0 0 84 84">
  <metadata><?xpacket begin="﻿" id="W5M0MpCehiHzreSzNTczkc9d"?>
<x:xmpmeta xmlns:x="adobe:ns:meta/" x:xmptk="Adobe XMP Core 5.6-c138 79.159824, 2016/09/14-01:09:01        ">
   <rdf:RDF xmlns:rdf="http://www.w3.org/1999/02/22-rdf-syntax-ns#">
      <rdf:Description rdf:about=""/>
   </rdf:RDF>
</x:xmpmeta>
                                                                                                    
                                                                                                    
                                                                                                    
                                                                                                    
                                                                                                    
                                                                                                    
                                                                                                    
                                                                                                    
                                                                                                    
                                                                                                    
                                                                                                    
                                                                                                    
                                                                                                    
                                                                                                    
                                                                                                    
                                                                                                    
                                                                                                    
                                                                                                    
                                                                                                    
                                                                                                    
                           
<?xpacket end="w"?></metadata>
<defs>
    <style>
      .cls-1 {
        fill: #00a651;
        filter: url(#filter);
      }

      .cls-2 {
        fill: #fff;
        fill-rule: evenodd;
      }
    </style>
    <filter id="filter" x="0" y="0" width="84" height="84" filterUnits="userSpaceOnUse">
      <feOffset result="offset" dy="2" in="SourceAlpha"/>
      <feGaussianBlur result="blur" stdDeviation="1.732"/>
      <feFlood result="flood" flood-opacity="0.5"/>
      <feComposite result="composite" operator="in" in2="blur"/>
      <feBlend result="blend" in="SourceGraphic"/>
    </filter>
  </defs>
  <circle id="Ellipse_1074_copy_4" data-name="Ellipse 1074 copy 4" class="cls-1" cx="41.5" cy="39.5" r="39.5"/>
  <path class="cls-2" d="M163.113,598.564V591.15a2.132,2.132,0,0,0-2.1-2.15H135.1a2.132,2.132,0,0,0-2.1,2.15v30.378a2.194,2.194,0,0,0,1.121,1.9l15.967,8.456a1.061,1.061,0,0,0,1.541-.968v-8.24h9.384a2.132,2.132,0,0,0,2.1-2.15V608.774h-4.2V617.3a1.044,1.044,0,0,1-1.05,1.075h-6.2V600.141a2.191,2.191,0,0,0-1.121-1.9l-9.419-4.944H157.86a1.044,1.044,0,0,1,1.05,1.075V598.6h4.2v-0.037Zm0,0,5.392-3.51,6.827,6.986a2.175,2.175,0,0,1,0,3.115l-6.827,6.987a2.105,2.105,0,0,1-3.083.036,2.325,2.325,0,0,1,.07-3.153l3.083-3.116H156.634a2.056,2.056,0,0,1-1.576-.717,2.465,2.465,0,0,1,.527-3.689,2.187,2.187,0,0,1,1.049-.287h11.941s-3.047-3.117-3.083-3.117a2.279,2.279,0,0,1-.07-3.117,2.136,2.136,0,0,1,3.083.072h0Zm0,0" transform="translate(-109 -569)"/>
</svg>
