<svg id="Group_20_copy_8" data-name="Group 20 copy 8" xmlns="http://www.w3.org/2000/svg" xmlns:xlink="http://www.w3.org/1999/xlink" width="212.654" height="212.654" viewBox="0 0 84 84">
  <metadata><?xpacket begin="﻿" id="W5M0MpCehiHzreSzNTczkc9d"?>
<x:xmpmeta xmlns:x="adobe:ns:meta/" x:xmptk="Adobe XMP Core 5.6-c138 79.159824, 2016/09/14-01:09:01        ">
   <rdf:RDF xmlns:rdf="http://www.w3.org/1999/02/22-rdf-syntax-ns#">
      <rdf:Description rdf:about=""/>
   </rdf:RDF>
</x:xmpmeta>
                                                                                                    
                                                                                                    
                                                                                                    
                                                                                                    
                                                                                                    
                                                                                                    
                                                                                                    
                                                                                                    
                                                                                                    
                                                                                                    
                                                                                                    
                                                                                                    
                                                                                                    
                                                                                                    
                                                                                                    
                                                                                                    
                                                                                                    
                                                                                                    
                                                                                                    
                                                                                                    
                           
<?xpacket end="w"?></metadata>
<defs>
    <style>
      .cls-1 {
        fill: #ff5fa9;
        filter: url(#filter);
      }

      .cls-2 {
        fill: #fefefe;
        fill-rule: evenodd;
      }
    </style>
    <filter id="filter" x="0" y="0" width="84" height="84" filterUnits="userSpaceOnUse">
      <feOffset result="offset" dy="2" in="SourceAlpha"/>
      <feGaussianBlur result="blur" stdDeviation="1.732"/>
      <feFlood result="flood" flood-opacity="0.5"/>
      <feComposite result="composite" operator="in" in2="blur"/>
      <feBlend result="blend" in="SourceGraphic"/>
    </filter>
  </defs>
  <circle id="Ellipse_1074_copy_2" data-name="Ellipse 1074 copy 2" class="cls-1" cx="41.5" cy="39.5" r="39.5"/>
  <path id="i_copy" data-name="i copy" class="cls-2" d="M221.272,436.131q-0.805.518-1.67,1.187a16.562,16.562,0,0,0-1.535,1.339,1.864,1.864,0,0,0-.671,1.014v0.613a1.014,1.014,0,0,0,.153.574,0.4,0.4,0,0,0,.154.191,1.823,1.823,0,0,0,.978-0.153,0.589,0.589,0,0,1,.4-0.153,0.926,0.926,0,0,1,.825.364,1.2,1.2,0,0,1,.25.669,3.343,3.343,0,0,1-.173.976q-0.172.555-.364,1.129t-0.365,1.072a2.564,2.564,0,0,0-.173.765v0.345a2.181,2.181,0,0,1-.153.88,2.274,2.274,0,0,0-.154.918v1.8l-0.307,1.072v0.727a0.246,0.246,0,0,1,.269.229,3.361,3.361,0,0,1,.038.536v0.613a1.237,1.237,0,0,0,.173.612,3.088,3.088,0,0,0,.441.593,2.256,2.256,0,0,0,.595.459,1.29,1.29,0,0,0,.595.172,1.42,1.42,0,0,0,.9-0.516,8.388,8.388,0,0,0,.979-1.187q0.461-.669.844-1.32a10.005,10.005,0,0,0,.5-0.918c0.1-.077.294-0.236,0.576-0.479s0.562-.5.844-0.765,0.537-.517.767-0.746a1.076,1.076,0,0,0,.346-0.46,3.227,3.227,0,0,0-.039-0.535,0.245,0.245,0,0,0-.268-0.23H225.3a0.876,0.876,0,0,0-.48.134,2.423,2.423,0,0,0-.4.325,1.793,1.793,0,0,1-.4.421,0.891,0.891,0,0,1-.557.191,0.734,0.734,0,0,1-.479-0.172,1.64,1.64,0,0,1-.365-0.421,2.148,2.148,0,0,1-.23-0.5,1.413,1.413,0,0,1-.077-0.4,1.567,1.567,0,0,1,.173-0.746,2.8,2.8,0,0,0,.249-0.632,6.608,6.608,0,0,1,.288-0.689,1.542,1.542,0,0,0,.134-0.689v-0.421c0.051-.2.1-0.395,0.154-0.574a2.951,2.951,0,0,0,.115-0.478,3,3,0,0,0,.038-0.44v-0.306a5.687,5.687,0,0,1,.173-1.455,5.5,5.5,0,0,0,.173-1.416,2.115,2.115,0,0,0-.039-0.421,1.19,1.19,0,0,0-.307-0.65l0.346-1.072a1.515,1.515,0,0,0-.422-1.014,1.371,1.371,0,0,0-1.075-.478A2.959,2.959,0,0,0,221.272,436.131Zm0.307-8.17a3.585,3.585,0,0,0-.346,1.683,4.964,4.964,0,0,1-.076.8,0.69,0.69,0,0,0,.192.689,2.666,2.666,0,0,0,2.11,1.3,0.813,0.813,0,0,0,.672-0.134,2,2,0,0,0,.5-0.535,3.368,3.368,0,0,0,.345-0.708q0.135-.382.211-0.651a1.922,1.922,0,0,1,.154-0.823,1.356,1.356,0,0,0,.154-0.555,3.163,3.163,0,0,0-.058-0.574,3.337,3.337,0,0,1-.058-0.612,4.612,4.612,0,0,1-.46-0.957,1.042,1.042,0,0,0-.691-0.651,1.878,1.878,0,0,0-.365.058q-0.249.057-.518,0.115t-0.518.114a1.858,1.858,0,0,1-.4.058A14.206,14.206,0,0,0,221.579,427.961Z" transform="translate(-180 -401)"/>
</svg>
