<svg id="Isolation_Mode" data-name="Isolation Mode" xmlns="http://www.w3.org/2000/svg" viewBox="0 0 58.24 58.25"><defs><style>.cls-1{fill:#1ba5d4;}.cls-2{fill:#fff;fill-rule:evenodd;}</style></defs><title>icon-twitter</title><circle class="cls-1" cx="29.12" cy="29.13" r="25.04"/><path class="cls-1" d="M144,108.32a.52.52,0,0,1,0-1,28.4,28.4,0,0,0,4.47-.36.52.52,0,0,1,.17,1,29.46,29.46,0,0,1-4.63.37Zm9-1.45a.52.52,0,0,1-.16-1,28,28,0,0,0,6.07-2.86.52.52,0,0,1,.56.88,29,29,0,0,1-6.29,3Zm-24.79-3.29a.52.52,0,0,1-.29-.09,29.12,29.12,0,0,1-10.75-12.92.52.52,0,1,1,1-.41,28.07,28.07,0,0,0,10.37,12.46.52.52,0,0,1-.29,1Zm39.62-8.06a.52.52,0,0,1-.43-.81,28,28,0,0,0,4.67-15.52.52.52,0,0,1,1,0,29,29,0,0,1-4.85,16.09A.52.52,0,0,1,167.84,95.52ZM115.4,79h0a.52.52,0,0,1-.51-.53,29.19,29.19,0,0,1,1-6.89.52.52,0,0,1,1,.27,28.11,28.11,0,0,0-1,6.64A.52.52,0,0,1,115.4,79Zm54.91-10.53a.52.52,0,0,1-.48-.32,28,28,0,0,0-2.08-4,.52.52,0,0,1,.88-.56,29.05,29.05,0,0,1,2.16,4.11.52.52,0,0,1-.48.73ZM117.92,68a.52.52,0,0,1-.47-.74,29.21,29.21,0,0,1,2.25-4.07.52.52,0,1,1,.87.58,28.12,28.12,0,0,0-2.17,3.92A.52.52,0,0,1,117.92,68Zm47.54-7.15a.52.52,0,0,1-.39-.18,28.29,28.29,0,0,0-5-4.47.52.52,0,1,1,.6-.85,29.28,29.28,0,0,1,5.19,4.63.52.52,0,0,1-.39.87ZM132.8,53.39a.52.52,0,0,1-.2-1A29,29,0,0,1,144,50.07a29.39,29.39,0,0,1,5.31.48.52.52,0,0,1-.19,1,28.37,28.37,0,0,0-5.12-.46,27.91,27.91,0,0,0-11,2.23A.52.52,0,0,1,132.8,53.39Z" transform="translate(-114.88 -50.07)"/><path class="cls-2" d="M139.4,87.07a6,6,0,0,1-5.59-4.17,6,6,0,0,0,2.57-.08l.09,0a6,6,0,0,1-3.9-2.75,5.83,5.83,0,0,1-.88-3.19,5.92,5.92,0,0,0,2.67.73,6,6,0,0,1-2.47-3.64,6,6,0,0,1,.64-4.35,17.18,17.18,0,0,0,12.38,6.27c0-.24-.07-.45-.1-.66a6,6,0,0,1,10.21-5,.3.3,0,0,0,.32.1A12.1,12.1,0,0,0,158.85,69l.08,0h0a6.14,6.14,0,0,1-2.57,3.27,11.52,11.52,0,0,0,3.34-.9l0,0c-.23.3-.45.61-.69.9a11.76,11.76,0,0,1-2.18,2.07.2.2,0,0,0-.1.19,16.54,16.54,0,0,1-.11,2.67,17.67,17.67,0,0,1-1.55,5.35,17.28,17.28,0,0,1-3.25,4.73,16,16,0,0,1-8.25,4.6,18,18,0,0,1-3.34.4,17,17,0,0,1-9.61-2.58l-.14-.09a12.14,12.14,0,0,0,6-.83A11.9,11.9,0,0,0,139.4,87.07Z" transform="translate(-114.88 -50.07)"/></svg>