<svg xmlns="http://www.w3.org/2000/svg" viewBox="0 0 58.24 58.25"><defs><style>.cls-1{fill:#f2a12c;}.cls-2{fill:#fff;}</style></defs><title>Asset 4</title><g id="Layer_2" data-name="Layer 2"><g id="Layer_1-2" data-name="Layer 1"><circle class="cls-1" cx="29.12" cy="29.13" r="25.04"/><path class="cls-1" d="M29.15,58.25a.52.52,0,0,1,0-1,28.4,28.4,0,0,0,4.47-.36.52.52,0,1,1,.17,1,29.46,29.46,0,0,1-4.63.37Zm9-1.45a.52.52,0,0,1-.16-1A28,28,0,0,0,44,52.92a.52.52,0,0,1,.56.88,29,29,0,0,1-6.29,3ZM13.34,53.51a.52.52,0,0,1-.29-.09A29.12,29.12,0,0,1,2.3,40.5a.52.52,0,1,1,1-.41A28.07,28.07,0,0,0,13.63,52.55a.52.52,0,0,1-.29,1ZM53,45.45a.52.52,0,0,1-.43-.81A28,28,0,0,0,57.2,29.12a.52.52,0,0,1,1,0A29,29,0,0,1,53.4,45.22.52.52,0,0,1,53,45.45ZM.52,28.95h0A.52.52,0,0,1,0,28.41a29.19,29.19,0,0,1,1-6.89.52.52,0,0,1,1,.27,28.11,28.11,0,0,0-1,6.64A.52.52,0,0,1,.52,28.95ZM55.43,18.42A.52.52,0,0,1,55,18.1a28,28,0,0,0-2.08-4,.52.52,0,1,1,.88-.56,29.05,29.05,0,0,1,2.16,4.11.52.52,0,0,1-.48.73ZM3,17.89a.52.52,0,0,1-.47-.74,29.21,29.21,0,0,1,2.25-4.07.52.52,0,0,1,.87.58,28.12,28.12,0,0,0-2.16,3.92A.52.52,0,0,1,3,17.89Zm47.54-7.15a.52.52,0,0,1-.39-.18,28.29,28.29,0,0,0-5-4.47.52.52,0,1,1,.6-.85A29.28,29.28,0,0,1,51,9.87a.52.52,0,0,1-.39.87ZM17.92,3.32a.52.52,0,0,1-.2-1A29,29,0,0,1,29.12,0a29.39,29.39,0,0,1,5.31.48.52.52,0,0,1-.19,1A28.37,28.37,0,0,0,29.12,1a27.91,27.91,0,0,0-11,2.23A.52.52,0,0,1,17.92,3.32Z"/><path class="cls-2" d="M40.06,27.91,35.2,32.77a6.79,6.79,0,0,1-10.77-1.39l2.26-2.26a1.62,1.62,0,0,1,.37-.24,3.38,3.38,0,0,0,.85,1.46,3.44,3.44,0,0,0,4.86,0l4.86-4.86a3.44,3.44,0,1,0-4.86-4.86L31,22.35a8.62,8.62,0,0,0-4.38-.48l3.68-3.68a6.87,6.87,0,1,1,9.72,9.72Zm-12.85,8-1.73,1.73a3.44,3.44,0,1,1-4.86-4.86l4.86-4.86a3.44,3.44,0,0,1,4.86,0,3.4,3.4,0,0,1,.85,1.46,1.64,1.64,0,0,0,.37-.24l2.26-2.26a6.76,6.76,0,0,0-1-1.39,6.87,6.87,0,0,0-9.72,0l-4.86,4.86a6.87,6.87,0,0,0,9.72,9.72l3.68-3.68a8.62,8.62,0,0,1-4.39-.48Zm0,0"/></g></g></svg>