<svg xmlns="http://www.w3.org/2000/svg" viewBox="0 0 58.24 58.25"><defs><style>.cls-1{fill:#45bf45;}.cls-2{fill:#fff;}</style></defs><title>Asset 6</title><g id="Layer_2" data-name="Layer 2"><g id="Layer_1-2" data-name="Layer 1"><circle class="cls-1" cx="29.12" cy="29.13" r="25.04"/><path class="cls-1" d="M29.15,58.25a.52.52,0,0,1,0-1,28.4,28.4,0,0,0,4.47-.36.52.52,0,1,1,.17,1,29.46,29.46,0,0,1-4.63.37Zm9-1.45a.52.52,0,0,1-.16-1A28,28,0,0,0,44,52.92a.52.52,0,0,1,.56.88,29,29,0,0,1-6.29,3ZM13.34,53.51a.52.52,0,0,1-.29-.09A29.12,29.12,0,0,1,2.3,40.5a.52.52,0,1,1,1-.41A28.07,28.07,0,0,0,13.63,52.55a.52.52,0,0,1-.29,1ZM53,45.45a.52.52,0,0,1-.43-.81A28,28,0,0,0,57.2,29.12a.52.52,0,0,1,1,0A29,29,0,0,1,53.4,45.22.52.52,0,0,1,53,45.45ZM.52,28.95h0A.52.52,0,0,1,0,28.41a29.19,29.19,0,0,1,1-6.89.52.52,0,0,1,1,.27,28.11,28.11,0,0,0-1,6.64A.52.52,0,0,1,.52,28.95ZM55.43,18.42A.52.52,0,0,1,55,18.1a28,28,0,0,0-2.08-4,.52.52,0,1,1,.88-.56,29.05,29.05,0,0,1,2.16,4.11.52.52,0,0,1-.48.73ZM3,17.89a.52.52,0,0,1-.47-.74,29.21,29.21,0,0,1,2.25-4.07.52.52,0,0,1,.87.58,28.12,28.12,0,0,0-2.16,3.92A.52.52,0,0,1,3,17.89Zm47.54-7.15a.52.52,0,0,1-.39-.18,28.29,28.29,0,0,0-5-4.47.52.52,0,1,1,.6-.85A29.28,29.28,0,0,1,51,9.87a.52.52,0,0,1-.39.87ZM17.92,3.32a.52.52,0,0,1-.2-1A29,29,0,0,1,29.12,0a29.39,29.39,0,0,1,5.31.48.52.52,0,0,1-.19,1A28.37,28.37,0,0,0,29.12,1a27.91,27.91,0,0,0-11,2.23A.52.52,0,0,1,17.92,3.32Z"/><g id="_Group_" data-name="&lt;Group&gt;"><path id="_Compound_Path_" data-name="&lt;Compound Path&gt;" class="cls-2" d="M31.79,37.82h4.35l-6.52,6.52L23.1,37.82h4.35V27h4.35Zm6.52-17.39c0-1-2-6.52-9.78-6.52-5.26,0-9.78,4.17-9.78,8.7a6.31,6.31,0,0,0-6.52,6.52,6.23,6.23,0,0,0,6.52,6.52h6.52V32.82H18.75a3.48,3.48,0,0,1-3.7-3.7,3.54,3.54,0,0,1,3.7-3.7h2.83V22.6c0-3,3.39-5.87,7-5.87,5.54,0,6.8,3.37,7,3.91v2.61h2.83c1.76,0,5.87.48,5.87,4.78,0,4.54-4.89,4.78-5.87,4.78H34v2.83h4.35c4.52,0,8.7-2.52,8.7-7.61C47,22.73,42.84,20.43,38.32,20.43Z"/></g></g></g></svg>