<svg id="Layer_1" data-name="Layer 1" xmlns="http://www.w3.org/2000/svg" viewBox="0 0 58.24 58.25"><defs><style>.cls-1{fill:#00b900;}.cls-2{fill:#fff;}</style></defs><title>icon-line</title><circle class="cls-1" cx="29.12" cy="29.13" r="25.04"/><path class="cls-1" d="M-9.43,157.62a.52.52,0,0,1-.52-.52.52.52,0,0,1,.52-.52A28.4,28.4,0,0,0-5,156.22a.52.52,0,0,1,.6.43.52.52,0,0,1-.43.6,29.46,29.46,0,0,1-4.63.37Zm9-1.45a.52.52,0,0,1-.5-.36.52.52,0,0,1,.33-.66,28,28,0,0,0,6.07-2.86.52.52,0,0,1,.56.88,29,29,0,0,1-6.29,3Zm-24.79-3.29a.52.52,0,0,1-.29-.09,29.12,29.12,0,0,1-10.75-12.92.52.52,0,0,1,.28-.68.52.52,0,0,1,.68.28,28.07,28.07,0,0,0,10.37,12.46.52.52,0,0,1,.15.72A.52.52,0,0,1-25.24,152.87Zm39.62-8.06A.52.52,0,0,1,14,144a28,28,0,0,0,4.67-15.52.52.52,0,0,1,1,0,29,29,0,0,1-4.85,16.09A.52.52,0,0,1,14.39,144.82Zm-52.44-16.5h0a.52.52,0,0,1-.51-.53,29.19,29.19,0,0,1,1-6.89.52.52,0,0,1,.64-.37.52.52,0,0,1,.37.64,28.11,28.11,0,0,0-1,6.64A.52.52,0,0,1-38.05,128.31Zm54.91-10.53a.52.52,0,0,1-.48-.32,28,28,0,0,0-2.08-4,.52.52,0,1,1,.88-.56,29.05,29.05,0,0,1,2.16,4.11.52.52,0,0,1-.48.73Zm-52.4-.53a.52.52,0,0,1-.21,0,.52.52,0,0,1-.26-.69,29.21,29.21,0,0,1,2.25-4.07.52.52,0,0,1,.72-.15.52.52,0,0,1,.15.72,28.12,28.12,0,0,0-2.16,3.92A.52.52,0,0,1-35.54,117.25ZM12,110.1a.52.52,0,0,1-.39-.18,28.29,28.29,0,0,0-5-4.47.52.52,0,1,1,.6-.85,29.28,29.28,0,0,1,5.19,4.63.52.52,0,0,1-.39.87Zm-32.65-7.42a.52.52,0,0,1-.48-.32.52.52,0,0,1,.28-.68,29,29,0,0,1,11.4-2.32,29.39,29.39,0,0,1,5.31.48.52.52,0,0,1,.42.61.52.52,0,0,1-.61.42,28.37,28.37,0,0,0-5.12-.46,27.91,27.91,0,0,0-11,2.23A.52.52,0,0,1-20.65,102.68Z" transform="translate(38.57 -99.37)"/><path class="cls-2" d="M-14.9,122.35h-1.81a.5.5,0,0,0-.5.5v11.27a.5.5,0,0,0,.5.5h1.81a.5.5,0,0,0,.5-.5V122.86a.5.5,0,0,0-.5-.5" transform="translate(38.57 -99.37)"/><path class="cls-2" d="M-2.41,122.35H-4.22a.5.5,0,0,0-.5.5v6.7l-5.17-7,0-.05h0l0,0h0l0,0h0l0,0h0l0,0h-2a.5.5,0,0,0-.5.5v11.27a.5.5,0,0,0,.5.5h1.81a.5.5,0,0,0,.5-.5v-6.69l5.17,7a.5.5,0,0,0,.13.12h0l0,0h.12l.13,0h1.81a.5.5,0,0,0,.5-.5V122.86a.5.5,0,0,0-.5-.5" transform="translate(38.57 -99.37)"/><path class="cls-2" d="M-19.27,131.81H-24.2v-9a.5.5,0,0,0-.5-.5h-1.81a.5.5,0,0,0-.5.5v11.27h0a.5.5,0,0,0,.14.35h0a.5.5,0,0,0,.35.14h7.25a.5.5,0,0,0,.5-.5v-1.81a.5.5,0,0,0-.5-.5" transform="translate(38.57 -99.37)"/><path class="cls-2" d="M7.62,125.17a.5.5,0,0,0,.5-.5v-1.81a.5.5,0,0,0-.5-.5H.37a.5.5,0,0,0-.35.14H0a.5.5,0,0,0-.14.35h0v11.27h0a.5.5,0,0,0,.14.35H0a.5.5,0,0,0,.35.14H7.62a.5.5,0,0,0,.5-.5v-1.81a.5.5,0,0,0-.5-.5H2.69V129.9H7.62a.5.5,0,0,0,.5-.5v-1.81a.5.5,0,0,0-.5-.5H2.69v-1.91Z" transform="translate(38.57 -99.37)"/></svg>